<svg xmlns="http://www.w3.org/2000/svg" viewBox="0 0 32 32" width="32" height="32">
  <!-- Background -->
  <rect width="32" height="32" rx="6" fill="#4F46E5" />
  
  <!-- Stethoscope for medium size -->
  <path d="M16 7 C 14 8, 12 8, 10 10 C 8 12, 7.5 14, 8 16 C 8.5 18, 10 19, 12.5 18 C 14 17.5, 14.5 16.5, 14.5 14.5 L 14.5 12 L 16 12 C 17 12, 18 13, 18 14 C 18 15, 17.5 15.5, 16.5 15.5" stroke="white" stroke-width="1.3" fill="none" stroke-linecap="round"/>
  
  <!-- Child silhouette -->
  <circle cx="20" cy="10" r="2.5" fill="white" />
  <path d="M18 13 L 22 13 L 24 21 L 23 21.5 L 21 17 L 20 21 L 19 17 L 17 21.5 L 16 21 Z" fill="white" />
</svg>