<svg xmlns="http://www.w3.org/2000/svg" viewBox="0 0 16 16" width="16" height="16">
  <!-- Background -->
  <rect width="16" height="16" rx="3" fill="#4F46E5" />
  
  <!-- Simplified stethoscope and child icon for small size -->
  <path d="M8 3.5 C 7 4, 6 4, 5 5 C 4 6, 4 7, 4.5 8 C 5 9, 6 9.5, 7 9 C 7.5 8.8, 7.8 8.2, 7.8 7.5 L 7.8 6.5 L 8.5 6.5 C 9 6.5, 9.5 7, 9.5 7.5 C 9.5 8, 9.2 8.2, 8.7 8.2" stroke="white" stroke-width="0.7" fill="none" stroke-linecap="round"/>
  
  <!-- Simplified child silhouette -->
  <circle cx="10" cy="5.5" r="1.3" fill="white" />
  <path d="M9 7 L 11 7 L 12 10.5 L 11.5 11 L 10.5 9 L 10 11 L 9.5 9 L 8.5 11 L 8 10.5 Z" fill="white" />
</svg>