<svg xmlns="http://www.w3.org/2000/svg" viewBox="0 0 512 512" width="512" height="512">
  <!-- Background with safe zone for maskable icons -->
  <rect width="512" height="512" fill="#4F46E5" />
  
  <!-- Content centered in the safe zone (about 60% of the canvas) -->
  <g transform="translate(102, 102) scale(0.6)">
    <!-- Stethoscope -->
    <path d="M256 120 C 230 140, 190 140, 160 160 C 130 180, 110 220, 110 260 C 110 300, 125 335, 150 360 C 175 385, 220 390, 250 370 C 270 358, 280 340, 280 300 L 280 240 L 310 240 C 330 240, 350 260, 350 280 C 350 300, 335 315, 315 315 C 300 315, 285 305, 280 290" stroke="white" stroke-width="22" fill="none" stroke-linecap="round"/>
    
    <!-- Child silhouette -->
    <circle cx="320" cy="190" r="40" fill="white" />
    <path d="M290 230 L 350 230 L 390 340 L 370 350 L 340 280 L 320 340 L 300 280 L 270 350 L 250 340 Z" fill="white" />
  </g>
  
  <!-- Text at bottom for extra branding in maskable context -->
  <text x="256" y="430" text-anchor="middle" font-family="Arial, sans-serif" font-weight="bold" font-size="40" fill="white">Under Five Health</text>
</svg>